 <svg
        className="news-right"
        viewBox="0 0 250 250"
        fill="none"
        xmlns="http://www.w3.org/2000/svg"
      >
        <g clip-path="url(#clip0)">
          <path
            d="M7.40467 148.504C7.40467 148.504 7.19185 147.841 6.8476 146.61"
            stroke="#FD7E14"
            stroke-width="9"
            stroke-miterlimit="10"
          />
          <path
            d="M5.83988 142.77C-1.76822 111.782 -25.4876 -31.0302 212.288 58.1242"
            stroke="#FD7E14"
            stroke-width="9"
            stroke-miterlimit="10"
            stroke-dasharray="12.04 12.04"
          />
          <path
            d="M214.069 58.7863L215.837 59.4485"
            stroke="#FD7E14"
            stroke-width="9"
            stroke-miterlimit="10"
          />
          <path
            d="M186.713 168.927C186.714 162.231 184.354 155.775 180.093 150.824C175.833 145.872 169.979 142.78 163.677 142.153C157.375 141.526 151.079 143.409 146.02 147.434C140.961 151.459 137.505 157.336 136.326 163.914L58.214 161.673L59.0715 175.869C59.0715 175.869 47.9332 203.056 106.473 210.299V237.777H174.147V192.091C177.969 189.724 181.139 186.341 183.344 182.277C185.548 178.214 186.709 173.612 186.713 168.927V168.927Z"
            fill="url(#paint0_linear)"
          />
          <path
            d="M61.7536 176.465C61.7536 176.465 51.0879 202.5 107.149 209.445V235.771H171.96V166.05L60.9211 162.868L61.7536 176.465Z"
            fill="#5E372E"
          />
          <path
            d="M94.1451 67.821C92.4552 70.6419 89.7786 72.6407 86.7 73.3807C83.6214 74.1207 80.391 73.5418 77.7146 71.7705L42.9164 47.5137C40.2497 45.7261 38.3602 42.8947 37.6606 39.6381C36.9611 36.3814 37.5083 32.9643 39.1828 30.1331C40.8726 27.3158 43.5469 25.3196 46.6225 24.5798C49.698 23.8399 52.9254 24.4164 55.6008 26.1835L90.399 50.4403C93.0677 52.2259 94.9598 55.0563 95.6618 58.3131C96.3637 61.5699 95.8185 64.9882 94.1451 67.821V67.821Z"
            fill="url(#paint1_linear)"
          />
          <path
            d="M92.2173 66.4934C90.6464 69.1155 88.1585 70.9734 85.2969 71.6614C82.4353 72.3493 79.4326 71.8113 76.9447 70.1649L44.5876 47.6164C42.1089 45.9547 40.3525 43.3229 39.7022 40.2958C39.0519 37.2687 39.5605 34.0923 41.1169 31.4606V31.4606C42.6877 28.8386 45.1757 26.9806 48.0373 26.2927C50.8989 25.6048 53.9016 26.1428 56.3894 27.7892L88.7403 50.341C91.2192 52.0016 92.9762 54.6323 93.6277 57.6587C94.2792 60.6851 93.7721 63.8612 92.2173 66.4934V66.4934Z"
            fill="#5E372E"
          />
          <path
            d="M159.654 195.56C173.096 195.56 183.993 184.033 183.993 169.814C183.993 155.595 173.096 144.067 159.654 144.067C146.212 144.067 135.315 155.595 135.315 169.814C135.315 184.033 146.212 195.56 159.654 195.56Z"
            fill="#5E372E"
          />
          <path
            d="M155.273 0H62.0353C59.9179 0 58.2015 1.8157 58.2015 4.05549V188.608C58.2015 190.848 59.9179 192.664 62.0353 192.664H155.273C157.39 192.664 159.107 190.848 159.107 188.608V4.05549C159.107 1.8157 157.39 0 155.273 0Z"
            fill="url(#paint2_linear)"
          />
          <path
            d="M153.473 2.60544H63.8348C61.4772 2.60544 59.566 4.62717 59.566 7.1211V185.549C59.566 188.043 61.4772 190.065 63.8348 190.065H153.473C155.831 190.065 157.742 188.043 157.742 185.549V7.1211C157.742 4.62717 155.831 2.60544 153.473 2.60544Z"
            fill="white"
          />
          <path
            d="M133.319 7.30318C133.035 9.29119 132.087 11.106 130.648 12.4195C129.209 13.7329 127.373 14.4581 125.473 14.464H91.5663C89.6662 14.4573 87.831 13.7317 86.3926 12.4184C84.9542 11.105 84.0074 9.29063 83.7235 7.30318H65.7595C65.2697 7.30274 64.7847 7.40441 64.3321 7.60237C63.8795 7.80032 63.4683 8.09069 63.1218 8.45686C62.7754 8.82304 62.5005 9.25785 62.313 9.73645C62.1255 10.215 62.029 10.728 62.029 11.2461V181.411C62.0286 181.929 62.1247 182.442 62.3118 182.921C62.499 183.4 62.7735 183.835 63.1196 184.201C63.4658 184.568 63.8768 184.858 64.3292 185.057C64.7817 185.255 65.2666 185.357 65.7564 185.357H151.552C152.041 185.358 152.526 185.256 152.979 185.058C153.432 184.86 153.843 184.57 154.189 184.204C154.536 183.837 154.811 183.403 154.998 182.924C155.186 182.445 155.282 181.932 155.282 181.414V11.2494C155.283 10.7313 155.186 10.2183 154.999 9.73951C154.812 9.26075 154.538 8.82569 154.192 8.45921C153.845 8.09272 153.434 7.80199 152.982 7.60363C152.529 7.40528 152.045 7.30318 151.555 7.30318H133.319Z"
            fill="#6C63FF"
          />
          <path
            d="M119.107 9.54778H98.4796C98.134 9.54778 97.8537 9.84422 97.8537 10.2099V10.3324C97.8537 10.6981 98.134 10.9945 98.4796 10.9945H119.107C119.453 10.9945 119.733 10.6981 119.733 10.3324V10.2099C119.733 9.84422 119.453 9.54778 119.107 9.54778Z"
            fill="#DBDBDB"
          />
          <path
            d="M124.38 10.9945C124.833 10.9945 125.2 10.6062 125.2 10.1271C125.2 9.64809 124.833 9.25975 124.38 9.25975C123.927 9.25975 123.56 9.64809 123.56 10.1271C123.56 10.6062 123.927 10.9945 124.38 10.9945Z"
            fill="#DBDBDB"
          />
          <path
            d="M175.39 174.353C168.326 176.081 163.479 171.208 161.845 163.739L145.615 99.9901C144.839 96.3884 145.442 92.6083 147.292 89.4752C149.142 86.3422 152.089 84.1108 155.489 83.2682V83.2682C158.894 82.4476 162.467 83.0854 165.429 85.0424C168.39 86.9994 170.5 90.1165 171.296 93.7132L184.541 159.098C186.175 166.579 182.45 172.625 175.39 174.353Z"
            fill="url(#paint3_linear)"
          />
          <path
            d="M169.475 95.277C168.098 88.9724 162.151 85.0425 156.191 86.4991C150.231 87.9558 146.516 94.2476 147.893 100.552L162.817 168.88C164.194 175.185 170.142 179.115 176.102 177.658C182.062 176.202 185.777 169.91 184.4 163.605L169.475 95.277Z"
            fill="#5E372E"
          />
          <path
            d="M183.893 227.157H91.2565V250H183.893V227.157Z"
            fill="url(#paint4_linear)"
          />
          <path
            d="M181.389 229.805H93.7602V247.683H181.389V229.805Z"
            fill="#6C63FF"
          />
          <path
            d="M129.322 60.3787L122.143 54.6613L125.272 50.3575L120.049 46.0207L116.785 50.3973L109.402 44.521C109.121 44.2977 108.779 44.1771 108.427 44.1771C108.076 44.1771 107.733 44.2977 107.452 44.521L87.8828 59.9318C87.141 60.5939 86.4463 61.352 86.44 63.0868H86.4181L86.368 86.8304V87.8865C86.3672 88.2265 86.4297 88.5633 86.5519 88.8777C86.6742 89.1922 86.8537 89.4781 87.0804 89.7191C87.3071 89.9601 87.5764 90.1515 87.873 90.2824C88.1696 90.4133 88.4877 90.4812 88.8091 90.482H89.773L108.329 90.5251L127.851 90.5714C128.172 90.5723 128.491 90.5062 128.788 90.3769C129.085 90.2476 129.356 90.0576 129.583 89.8178C129.811 89.578 129.992 89.2931 130.116 88.9794C130.24 88.6656 130.304 88.3291 130.305 87.9891L130.358 63.2325H130.399C130.399 61.4944 130.064 61.0409 129.322 60.3787Z"
            fill="url(#paint5_linear)"
          />
          <path
            d="M128.471 63.5933C128.471 62.0109 128.158 61.607 127.488 60.9945L109.314 46.5371C109.058 46.3332 108.745 46.223 108.424 46.223C108.103 46.223 107.79 46.3332 107.534 46.5371L89.6792 60.6005C89.2497 60.9251 88.9042 61.3586 88.6745 61.8614C88.4448 62.3641 88.3383 62.9198 88.3647 63.4775H88.3459L88.299 85.142V86.1054C88.2982 86.7317 88.5324 87.3328 88.9502 87.7766C89.368 88.2205 89.9352 88.4707 90.5273 88.4725H91.4067L108.338 88.5122L126.149 88.5552C126.741 88.5561 127.309 88.3084 127.728 87.8664C128.148 87.4245 128.385 86.8244 128.386 86.1981L128.433 63.6099L128.471 63.5933Z"
            fill="url(#paint6_linear)"
          />
          <path
            d="M88.6741 63.5642L128.054 63.6587L128.005 86.578C128.004 86.7597 127.97 86.9395 127.904 87.1073C127.838 87.275 127.741 87.4273 127.62 87.5556C127.498 87.6838 127.353 87.7853 127.194 87.8545C127.036 87.9237 126.865 87.9591 126.694 87.9586L90.0772 87.8708C89.6946 87.8698 89.3279 87.7082 89.058 87.4213C88.788 87.1344 88.6369 86.7459 88.6377 86.3411L88.6866 63.5642L88.6741 63.5642Z"
            fill="#6C63FF"
          />
          <path
            opacity="0.2"
            d="M88.6741 63.5642L128.054 63.6587L128.005 86.578C128.004 86.7597 127.97 86.9395 127.904 87.1073C127.838 87.275 127.741 87.4273 127.62 87.5556C127.498 87.6838 127.353 87.7853 127.194 87.8545C127.036 87.9237 126.865 87.9591 126.694 87.9586L90.0772 87.8708C89.6946 87.8698 89.3279 87.7082 89.058 87.4213C88.788 87.1344 88.6369 86.7459 88.6377 86.3411L88.6866 63.5642L88.6741 63.5642Z"
            fill="white"
          />
          <path
            d="M88.6777 63.5569L88.6339 84.609C88.633 85.0338 88.7113 85.4546 88.8642 85.8473C89.0171 86.2401 89.2417 86.5971 89.525 86.8981C89.8083 87.199 90.145 87.438 90.5156 87.6014C90.8863 87.7647 91.2837 87.8492 91.6852 87.8501L124.95 87.9296"
            fill="#F5F5F5"
          />
          <path
            d="M128.061 63.6496L128.017 84.715C128.016 85.1397 127.936 85.5601 127.782 85.9522C127.627 86.3443 127.401 86.7004 127.117 87.0001C126.832 87.2999 126.495 87.5374 126.124 87.6991C125.752 87.8609 125.355 87.9437 124.953 87.9428L91.6884 87.8633"
            fill="white"
          />
          <path
            d="M107.53 47.0867L90.0046 60.7595C89.5836 61.0726 89.2444 61.4933 89.0184 61.9824C88.7924 62.4715 88.687 63.0132 88.7121 63.5569L128.111 63.6894C128.111 62.1499 127.798 61.746 127.147 61.1634L109.292 47.0933C109.039 46.8906 108.73 46.7804 108.413 46.7792C108.095 46.778 107.785 46.8859 107.53 47.0867V47.0867Z"
            fill="#6C63FF"
          />
          <path
            opacity="0.2"
            d="M107.53 47.0867L90.0046 60.7595C89.5836 61.0726 89.2444 61.4933 89.0184 61.9824C88.7924 62.4715 88.687 63.0132 88.7121 63.5569L128.111 63.6894C128.111 62.1499 127.798 61.746 127.147 61.1634L109.292 47.0933C109.039 46.8906 108.73 46.7804 108.413 46.7792C108.095 46.778 107.785 46.8859 107.53 47.0867V47.0867Z"
            fill="black"
          />
          <path
            d="M123.795 51.844L119.029 47.8911L107.509 63.3252L101.318 58.2467L97.4406 63.4609L106.451 70.7409L108.685 72.6379L123.795 51.844Z"
            fill="url(#paint7_linear)"
          />
          <path
            d="M123.445 51.748L119.126 48.2454L107.681 64.0337L101.324 58.879L98.0102 63.4477L106.526 70.347L108.71 72.0784L123.445 51.748Z"
            fill="white"
          />
          <path
            d="M86.6716 102.566C84.9939 105.365 82.3372 107.349 79.2816 108.083C76.2259 108.818 73.0197 108.243 70.3632 106.485L40.7883 86.1153C38.1417 84.3407 36.2665 81.5303 35.5722 78.298C34.878 75.0656 35.421 71.674 37.0828 68.8638V68.8638C38.7605 66.0642 41.4172 64.0806 44.4729 63.3461C47.5285 62.6117 50.7347 63.1862 53.3913 64.9441L82.9661 85.3142C85.6127 87.0889 87.4879 89.8993 88.1822 93.1316C88.8764 96.3639 88.3334 99.7555 86.6716 102.566V102.566Z"
            fill="url(#paint8_linear)"
          />
          <path
            d="M85.1005 101.493C83.5297 104.115 81.0417 105.973 78.1801 106.661C75.3185 107.349 72.3158 106.811 69.828 105.165L42.1278 86.0856C39.649 84.4239 37.8927 81.792 37.2424 78.7649C36.592 75.7379 37.1006 72.5615 38.657 69.9298C40.2279 67.3077 42.7158 65.4498 45.5774 64.7619C48.439 64.074 51.4417 64.612 53.9296 66.2584L81.6298 85.3374C84.1085 86.999 85.8649 89.6309 86.5152 92.658C87.1655 95.6851 86.6569 98.8614 85.1005 101.493Z"
            fill="#5E372E"
          />
          <path
            d="M80.6377 136.208C78.9683 138.995 76.3239 140.971 73.2822 141.702C70.2405 142.433 67.0488 141.861 64.4044 140.111L41.0637 124.138C38.4287 122.372 36.5616 119.574 35.8702 116.357C35.1788 113.139 35.7194 109.763 37.3739 106.966V106.966C39.0433 104.178 41.6877 102.203 44.7294 101.472C47.7711 100.74 50.9628 101.312 53.6072 103.062L76.9448 119.039C79.5794 120.805 81.4466 123.601 82.1385 126.818C82.8304 130.035 82.2909 133.411 80.6377 136.208Z"
            fill="url(#paint9_linear)"
          />
          <path
            d="M74.779 170.022C73.0948 172.835 70.4265 174.829 67.3571 175.567C64.2878 176.305 61.0671 175.728 58.3986 173.962L43.943 162.805C41.2838 161.024 39.3994 158.201 38.7016 154.954C38.0038 151.707 38.5492 148.3 40.2187 145.478C41.905 142.667 44.5742 140.676 47.6434 139.941C50.7125 139.205 53.9322 139.784 56.5991 141.551L71.0548 152.705C73.7113 154.486 75.5939 157.307 76.2916 160.552C76.9893 163.796 76.4456 167.201 74.779 170.022Z"
            fill="url(#paint10_linear)"
          />
          <path
            d="M73.6117 169.192C72.0409 171.814 69.5529 173.672 66.6913 174.36C63.8297 175.047 60.827 174.509 58.3392 172.863L44.8599 162.461C42.3812 160.799 40.6248 158.168 39.9745 155.141C39.3242 152.113 39.8328 148.937 41.3892 146.305C42.96 143.683 45.448 141.825 48.3096 141.137C51.1712 140.45 54.1739 140.988 56.6617 142.634L70.141 153.036C72.6197 154.698 74.3761 157.329 75.0264 160.356C75.6767 163.384 75.1681 166.56 73.6117 169.192V169.192Z"
            fill="#5E372E"
          />
          <path
            d="M140.576 107.121H76.7319V127.316H140.576V107.121Z"
            fill="url(#paint11_linear)"
          />
          <path
            d="M138.385 109.107H78.9227V123.674H138.385V109.107Z"
            fill="#FD7E14"
          />
          <path
            d="M248.876 71.019L250 71.2044L249.825 71.0289H249.919L249.772 70.976L229.401 50.5396L224.456 58.793L220.344 66.3213L222.25 66.6358L221.405 70.7144L248.876 71.019Z"
            fill="url(#paint12_linear)"
          />
          <path
            d="M225.31 59.2233L221.555 66.1127L249.096 70.8568L231.357 57.7898L225.31 59.2233Z"
            fill="#6C63FF"
          />
          <path
            opacity="0.2"
            d="M225.31 59.2233L221.555 66.1127L249.096 70.8568L231.357 57.7898L225.31 59.2233Z"
            fill="black"
          />
          <path
            d="M229.833 51.6752L249.096 70.8568L225.31 59.2233L229.833 51.6752Z"
            fill="#6C63FF"
          />
          <path
            d="M222.569 70.1615L249.02 70.6946L224.328 61.4183L222.569 70.1615Z"
            fill="#6C63FF"
          />
          <path
            d="M79.3546 135.344C77.7837 137.966 75.2958 139.824 72.4342 140.512C69.5726 141.2 66.5699 140.662 64.082 139.015L42.1246 123.985C39.6459 122.324 37.8895 119.692 37.2392 116.665C36.5889 113.638 37.0975 110.461 38.6539 107.83V107.83C40.2222 105.205 42.7091 103.343 45.5709 102.652C48.4327 101.961 51.4367 102.497 53.9264 104.142L75.8838 119.172C78.3669 120.834 80.1263 123.468 80.7768 126.5C81.4273 129.531 80.9159 132.711 79.3546 135.344V135.344Z"
            fill="#5E372E"
          />
        </g>
        <defs>
          <linearGradient
            id="paint0_linear"
            x1="122.468"
            y1="237.79"
            x2="122.468"
            y2="142.038"
            gradientUnits="userSpaceOnUse"
          >
            <stop stop-color="#808080" stop-opacity="0.25" />
            <stop offset="0.54" stop-color="#808080" stop-opacity="0.12" />
            <stop offset="1" stop-color="#808080" stop-opacity="0.1" />
          </linearGradient>
          <linearGradient
            id="paint1_linear"
            x1="24140.8"
            y1="14608.1"
            x2="24140.8"
            y2="7226.21"
            gradientUnits="userSpaceOnUse"
          >
            <stop stop-color="#808080" stop-opacity="0.25" />
            <stop offset="0.54" stop-color="#808080" stop-opacity="0.12" />
            <stop offset="1" stop-color="#808080" stop-opacity="0.1" />
          </linearGradient>
          <linearGradient
            id="paint2_linear"
            x1="55041.9"
            y1="126053"
            x2="55041.9"
            y2="13930.6"
            gradientUnits="userSpaceOnUse"
          >
            <stop stop-color="#808080" stop-opacity="0.25" />
            <stop offset="0.54" stop-color="#808080" stop-opacity="0.12" />
            <stop offset="1" stop-color="#808080" stop-opacity="0.1" />
          </linearGradient>
          <linearGradient
            id="paint3_linear"
            x1="28917.4"
            y1="55164.6"
            x2="28917.4"
            y2="29715.9"
            gradientUnits="userSpaceOnUse"
          >
            <stop stop-color="#808080" stop-opacity="0.25" />
            <stop offset="0.54" stop-color="#808080" stop-opacity="0.12" />
            <stop offset="1" stop-color="#808080" stop-opacity="0.1" />
          </linearGradient>
          <linearGradient
            id="paint4_linear"
            x1="59125.8"
            y1="19107.5"
            x2="59125.8"
            y2="17531.3"
            gradientUnits="userSpaceOnUse"
          >
            <stop stop-color="#808080" stop-opacity="0.25" />
            <stop offset="0.54" stop-color="#808080" stop-opacity="0.12" />
            <stop offset="1" stop-color="#808080" stop-opacity="0.1" />
          </linearGradient>
          <linearGradient
            id="paint5_linear"
            x1="108.382"
            y1="90.5681"
            x2="108.382"
            y2="44.1733"
            gradientUnits="userSpaceOnUse"
          >
            <stop stop-opacity="0.12" />
            <stop offset="0.55" stop-opacity="0.09" />
            <stop offset="1" stop-opacity="0.02" />
          </linearGradient>
          <linearGradient
            id="paint6_linear"
            x1="21967.8"
            y1="14433.3"
            x2="21967.8"
            y2="9020.66"
            gradientUnits="userSpaceOnUse"
          >
            <stop stop-color="#808080" stop-opacity="0.25" />
            <stop offset="0.54" stop-color="#808080" stop-opacity="0.12" />
            <stop offset="1" stop-color="#808080" stop-opacity="0.1" />
          </linearGradient>
          <linearGradient
            id="paint7_linear"
            x1="14550.3"
            y1="7283.38"
            x2="14554.8"
            y2="5431.58"
            gradientUnits="userSpaceOnUse"
          >
            <stop stop-opacity="0.12" />
            <stop offset="0.55" stop-opacity="0.09" />
            <stop offset="1" stop-opacity="0.02" />
          </linearGradient>
          <linearGradient
            id="paint8_linear"
            x1="21105"
            y1="18201.1"
            x2="21105"
            y2="11985.3"
            gradientUnits="userSpaceOnUse"
          >
            <stop stop-color="#808080" stop-opacity="0.25" />
            <stop offset="0.54" stop-color="#808080" stop-opacity="0.12" />
            <stop offset="1" stop-color="#808080" stop-opacity="0.1" />
          </linearGradient>
          <linearGradient
            id="paint9_linear"
            x1="18162.8"
            y1="20584.1"
            x2="18162.8"
            y2="15543"
            gradientUnits="userSpaceOnUse"
          >
            <stop stop-color="#808080" stop-opacity="0.25" />
            <stop offset="0.54" stop-color="#808080" stop-opacity="0.12" />
            <stop offset="1" stop-color="#808080" stop-opacity="0.1" />
          </linearGradient>
          <linearGradient
            id="paint10_linear"
            x1="14627.1"
            y1="22024.2"
            x2="14627.1"
            y2="18053.6"
            gradientUnits="userSpaceOnUse"
          >
            <stop stop-color="#808080" stop-opacity="0.25" />
            <stop offset="0.54" stop-color="#808080" stop-opacity="0.12" />
            <stop offset="1" stop-color="#808080" stop-opacity="0.1" />
          </linearGradient>
          <linearGradient
            id="paint11_linear"
            x1="22242.2"
            y1="7873.38"
            x2="22242.2"
            y2="6641.51"
            gradientUnits="userSpaceOnUse"
          >
            <stop stop-opacity="0.12" />
            <stop offset="0.55" stop-opacity="0.09" />
            <stop offset="1" stop-opacity="0.02" />
          </linearGradient>
          <linearGradient
            id="paint12_linear"
            x1="20718"
            y1="21913"
            x2="21455.1"
            y2="20813.2"
            gradientUnits="userSpaceOnUse"
          >
            <stop stop-color="#808080" stop-opacity="0.25" />
            <stop offset="0.54" stop-color="#808080" stop-opacity="0.12" />
            <stop offset="1" stop-color="#808080" stop-opacity="0.1" />
          </linearGradient>
          <clipPath id="clip0">
            <rect width="250" height="250" fill="white" />
          </clipPath>
        </defs>
      </svg>